<mxfile host="app.diagrams.net" modified="2020-05-12T15:29:37.428Z" agent="5.0 (Windows NT 10.0; Win64; x64) AppleWebKit/537.36 (KHTML, like Gecko) Chrome/81.0.4044.138 Safari/537.36" etag="UXn5kpMlsfHtAX7uj2Xj" version="13.0.9" type="github">
  <diagram id="GDUr77yGjkfg1sBR5e3p" name="Page-1">
    <mxGraphModel dx="1037" dy="588" grid="0" gridSize="10" guides="1" tooltips="1" connect="1" arrows="1" fold="1" page="1" pageScale="1" pageWidth="827" pageHeight="1169" math="0" shadow="0">
      <root>
        <mxCell id="0" />
        <mxCell id="1" parent="0" />
        <mxCell id="-cZGvEiwD8rviWpvyMt--16" value="" style="rounded=0;whiteSpace=wrap;html=1;" vertex="1" parent="1">
          <mxGeometry x="64" y="793" width="522" height="195" as="geometry" />
        </mxCell>
        <mxCell id="-cZGvEiwD8rviWpvyMt--17" value="" style="rounded=0;whiteSpace=wrap;html=1;" vertex="1" parent="1">
          <mxGeometry x="120" y="812" width="278" height="138" as="geometry" />
        </mxCell>
        <mxCell id="rvGTaUA01hD-SUWbWmu1-10" style="edgeStyle=none;rounded=0;orthogonalLoop=1;jettySize=auto;html=1;exitX=1;exitY=0.5;exitDx=0;exitDy=0;entryX=0;entryY=0.5;entryDx=0;entryDy=0;" parent="1" source="rvGTaUA01hD-SUWbWmu1-1" target="rvGTaUA01hD-SUWbWmu1-5" edge="1">
          <mxGeometry relative="1" as="geometry" />
        </mxCell>
        <mxCell id="rvGTaUA01hD-SUWbWmu1-1" value="资源赋能" style="rounded=0;whiteSpace=wrap;html=1;" parent="1" vertex="1">
          <mxGeometry x="160" y="180" width="120" height="60" as="geometry" />
        </mxCell>
        <mxCell id="rvGTaUA01hD-SUWbWmu1-11" style="edgeStyle=none;rounded=0;orthogonalLoop=1;jettySize=auto;html=1;exitX=1;exitY=0.5;exitDx=0;exitDy=0;" parent="1" source="rvGTaUA01hD-SUWbWmu1-2" edge="1">
          <mxGeometry relative="1" as="geometry">
            <mxPoint x="390" y="320" as="targetPoint" />
          </mxGeometry>
        </mxCell>
        <mxCell id="rvGTaUA01hD-SUWbWmu1-2" value="心理赋能" style="rounded=0;whiteSpace=wrap;html=1;" parent="1" vertex="1">
          <mxGeometry x="160" y="290" width="120" height="60" as="geometry" />
        </mxCell>
        <mxCell id="rvGTaUA01hD-SUWbWmu1-12" style="edgeStyle=none;rounded=0;orthogonalLoop=1;jettySize=auto;html=1;exitX=1;exitY=0.5;exitDx=0;exitDy=0;" parent="1" source="rvGTaUA01hD-SUWbWmu1-3" edge="1">
          <mxGeometry relative="1" as="geometry">
            <mxPoint x="390" y="320" as="targetPoint" />
          </mxGeometry>
        </mxCell>
        <mxCell id="rvGTaUA01hD-SUWbWmu1-3" value="结构赋能" style="rounded=0;whiteSpace=wrap;html=1;" parent="1" vertex="1">
          <mxGeometry x="160" y="400" width="120" height="60" as="geometry" />
        </mxCell>
        <mxCell id="rvGTaUA01hD-SUWbWmu1-14" style="edgeStyle=none;rounded=0;orthogonalLoop=1;jettySize=auto;html=1;exitX=0;exitY=1;exitDx=0;exitDy=0;" parent="1" source="rvGTaUA01hD-SUWbWmu1-4" edge="1">
          <mxGeometry relative="1" as="geometry">
            <mxPoint x="330" y="260" as="targetPoint" />
          </mxGeometry>
        </mxCell>
        <mxCell id="rvGTaUA01hD-SUWbWmu1-15" style="edgeStyle=none;rounded=0;orthogonalLoop=1;jettySize=auto;html=1;exitX=0;exitY=1;exitDx=0;exitDy=0;" parent="1" source="rvGTaUA01hD-SUWbWmu1-4" edge="1">
          <mxGeometry relative="1" as="geometry">
            <mxPoint x="330" y="320" as="targetPoint" />
          </mxGeometry>
        </mxCell>
        <mxCell id="rvGTaUA01hD-SUWbWmu1-16" style="edgeStyle=none;rounded=0;orthogonalLoop=1;jettySize=auto;html=1;exitX=0;exitY=1;exitDx=0;exitDy=0;" parent="1" source="rvGTaUA01hD-SUWbWmu1-4" edge="1">
          <mxGeometry relative="1" as="geometry">
            <mxPoint x="330" y="380" as="targetPoint" />
          </mxGeometry>
        </mxCell>
        <mxCell id="rvGTaUA01hD-SUWbWmu1-26" value="H5c" style="edgeLabel;html=1;align=center;verticalAlign=middle;resizable=0;points=[];" parent="rvGTaUA01hD-SUWbWmu1-16" vertex="1" connectable="0">
          <mxGeometry x="-0.1802" y="3" relative="1" as="geometry">
            <mxPoint as="offset" />
          </mxGeometry>
        </mxCell>
        <mxCell id="rvGTaUA01hD-SUWbWmu1-4" value="响应方式" style="rounded=0;whiteSpace=wrap;html=1;" parent="1" vertex="1">
          <mxGeometry x="390" y="150" width="120" height="60" as="geometry" />
        </mxCell>
        <mxCell id="rvGTaUA01hD-SUWbWmu1-13" style="edgeStyle=none;rounded=0;orthogonalLoop=1;jettySize=auto;html=1;exitX=1;exitY=0.5;exitDx=0;exitDy=0;entryX=0;entryY=0.5;entryDx=0;entryDy=0;" parent="1" source="rvGTaUA01hD-SUWbWmu1-5" target="rvGTaUA01hD-SUWbWmu1-6" edge="1">
          <mxGeometry relative="1" as="geometry" />
        </mxCell>
        <mxCell id="rvGTaUA01hD-SUWbWmu1-5" value="商家绩效" style="rounded=0;whiteSpace=wrap;html=1;" parent="1" vertex="1">
          <mxGeometry x="390" y="290" width="120" height="60" as="geometry" />
        </mxCell>
        <mxCell id="rvGTaUA01hD-SUWbWmu1-6" value="价值共创" style="rounded=0;whiteSpace=wrap;html=1;" parent="1" vertex="1">
          <mxGeometry x="600" y="290" width="120" height="60" as="geometry" />
        </mxCell>
        <mxCell id="rvGTaUA01hD-SUWbWmu1-17" value="H1" style="text;html=1;align=center;verticalAlign=middle;resizable=0;points=[];autosize=1;" parent="1" vertex="1">
          <mxGeometry x="310" y="260" width="30" height="20" as="geometry" />
        </mxCell>
        <mxCell id="rvGTaUA01hD-SUWbWmu1-18" value="H2" style="text;html=1;align=center;verticalAlign=middle;resizable=0;points=[];autosize=1;" parent="1" vertex="1">
          <mxGeometry x="310" y="330" width="30" height="20" as="geometry" />
        </mxCell>
        <mxCell id="rvGTaUA01hD-SUWbWmu1-22" value="H3" style="text;html=1;align=center;verticalAlign=middle;resizable=0;points=[];autosize=1;" parent="1" vertex="1">
          <mxGeometry x="310" y="400" width="30" height="20" as="geometry" />
        </mxCell>
        <mxCell id="rvGTaUA01hD-SUWbWmu1-23" value="H4" style="text;html=1;align=center;verticalAlign=middle;resizable=0;points=[];autosize=1;" parent="1" vertex="1">
          <mxGeometry x="543" y="326" width="30" height="20" as="geometry" />
        </mxCell>
        <mxCell id="rvGTaUA01hD-SUWbWmu1-24" value="H5a" style="text;html=1;align=center;verticalAlign=middle;resizable=0;points=[];autosize=1;" parent="1" vertex="1">
          <mxGeometry x="334" y="210" width="40" height="20" as="geometry" />
        </mxCell>
        <mxCell id="rvGTaUA01hD-SUWbWmu1-25" value="H5b" style="text;html=1;align=center;verticalAlign=middle;resizable=0;points=[];autosize=1;" parent="1" vertex="1">
          <mxGeometry x="326" y="253" width="40" height="20" as="geometry" />
        </mxCell>
        <mxCell id="rvGTaUA01hD-SUWbWmu1-64" style="edgeStyle=none;rounded=0;orthogonalLoop=1;jettySize=auto;html=1;exitX=1;exitY=0.5;exitDx=0;exitDy=0;entryX=0;entryY=0.5;entryDx=0;entryDy=0;" parent="1" source="rvGTaUA01hD-SUWbWmu1-27" target="rvGTaUA01hD-SUWbWmu1-37" edge="1">
          <mxGeometry relative="1" as="geometry" />
        </mxCell>
        <mxCell id="rvGTaUA01hD-SUWbWmu1-27" value="场景氛围" style="rounded=0;whiteSpace=wrap;html=1;" parent="1" vertex="1">
          <mxGeometry x="240" y="540" width="60" height="60" as="geometry" />
        </mxCell>
        <mxCell id="rvGTaUA01hD-SUWbWmu1-28" value="视觉效果" style="rounded=0;whiteSpace=wrap;html=1;" parent="1" vertex="1">
          <mxGeometry x="120" y="540" width="120" height="20" as="geometry" />
        </mxCell>
        <mxCell id="rvGTaUA01hD-SUWbWmu1-31" value="直播互动" style="rounded=0;whiteSpace=wrap;html=1;" parent="1" vertex="1">
          <mxGeometry x="120" y="560" width="120" height="20" as="geometry" />
        </mxCell>
        <mxCell id="rvGTaUA01hD-SUWbWmu1-35" value="冲动购买意愿" style="rounded=0;whiteSpace=wrap;html=1;" parent="1" vertex="1">
          <mxGeometry x="580" y="540" width="53" height="60" as="geometry" />
        </mxCell>
        <mxCell id="rvGTaUA01hD-SUWbWmu1-37" value="情绪" style="rounded=0;whiteSpace=wrap;html=1;" parent="1" vertex="1">
          <mxGeometry x="360" y="630" width="50" height="60" as="geometry" />
        </mxCell>
        <mxCell id="rvGTaUA01hD-SUWbWmu1-39" value="产生共情情绪" style="rounded=0;whiteSpace=wrap;html=1;" parent="1" vertex="1">
          <mxGeometry x="410" y="670" width="120" height="20" as="geometry" />
        </mxCell>
        <mxCell id="rvGTaUA01hD-SUWbWmu1-65" style="edgeStyle=none;rounded=0;orthogonalLoop=1;jettySize=auto;html=1;exitX=1;exitY=0.5;exitDx=0;exitDy=0;" parent="1" source="rvGTaUA01hD-SUWbWmu1-42" edge="1">
          <mxGeometry relative="1" as="geometry">
            <mxPoint x="360" y="660" as="targetPoint" />
          </mxGeometry>
        </mxCell>
        <mxCell id="rvGTaUA01hD-SUWbWmu1-42" value="产品属性" style="rounded=0;whiteSpace=wrap;html=1;" parent="1" vertex="1">
          <mxGeometry x="240" y="630" width="60" height="60" as="geometry" />
        </mxCell>
        <mxCell id="rvGTaUA01hD-SUWbWmu1-44" value="直播限价" style="rounded=0;whiteSpace=wrap;html=1;" parent="1" vertex="1">
          <mxGeometry x="120" y="630" width="120" height="20" as="geometry" />
        </mxCell>
        <mxCell id="rvGTaUA01hD-SUWbWmu1-46" value="高唤醒积极情绪" style="rounded=0;whiteSpace=wrap;html=1;" parent="1" vertex="1">
          <mxGeometry x="410" y="630" width="120" height="20" as="geometry" />
        </mxCell>
        <mxCell id="rvGTaUA01hD-SUWbWmu1-47" value="互惠共创" style="rounded=0;whiteSpace=wrap;html=1;" parent="1" vertex="1">
          <mxGeometry x="583" y="710" width="50" height="60" as="geometry" />
        </mxCell>
        <mxCell id="rvGTaUA01hD-SUWbWmu1-67" style="edgeStyle=none;rounded=0;orthogonalLoop=1;jettySize=auto;html=1;exitX=1;exitY=0.5;exitDx=0;exitDy=0;entryX=0;entryY=0.5;entryDx=0;entryDy=0;" parent="1" source="rvGTaUA01hD-SUWbWmu1-48" target="rvGTaUA01hD-SUWbWmu1-35" edge="1">
          <mxGeometry relative="1" as="geometry" />
        </mxCell>
        <mxCell id="rvGTaUA01hD-SUWbWmu1-68" style="edgeStyle=none;rounded=0;orthogonalLoop=1;jettySize=auto;html=1;exitX=1;exitY=0.5;exitDx=0;exitDy=0;entryX=0;entryY=0.5;entryDx=0;entryDy=0;" parent="1" source="rvGTaUA01hD-SUWbWmu1-48" target="rvGTaUA01hD-SUWbWmu1-47" edge="1">
          <mxGeometry relative="1" as="geometry" />
        </mxCell>
        <mxCell id="rvGTaUA01hD-SUWbWmu1-48" value="低唤起积极情绪" style="rounded=0;whiteSpace=wrap;html=1;" parent="1" vertex="1">
          <mxGeometry x="410" y="650" width="120" height="20" as="geometry" />
        </mxCell>
        <mxCell id="rvGTaUA01hD-SUWbWmu1-50" value="产品口碑" style="rounded=0;whiteSpace=wrap;html=1;" parent="1" vertex="1">
          <mxGeometry x="120" y="670" width="120" height="20" as="geometry" />
        </mxCell>
        <mxCell id="rvGTaUA01hD-SUWbWmu1-66" style="edgeStyle=none;rounded=0;orthogonalLoop=1;jettySize=auto;html=1;exitX=1;exitY=0.5;exitDx=0;exitDy=0;" parent="1" source="rvGTaUA01hD-SUWbWmu1-51" edge="1">
          <mxGeometry relative="1" as="geometry">
            <mxPoint x="360" y="660" as="targetPoint" />
          </mxGeometry>
        </mxCell>
        <mxCell id="rvGTaUA01hD-SUWbWmu1-51" value="网红特性" style="rounded=0;whiteSpace=wrap;html=1;" parent="1" vertex="1">
          <mxGeometry x="240" y="720" width="60" height="60" as="geometry" />
        </mxCell>
        <mxCell id="rvGTaUA01hD-SUWbWmu1-52" value="感知价值" style="rounded=0;whiteSpace=wrap;html=1;" parent="1" vertex="1">
          <mxGeometry x="120" y="650" width="120" height="20" as="geometry" />
        </mxCell>
        <mxCell id="rvGTaUA01hD-SUWbWmu1-53" value="信任程度" style="rounded=0;whiteSpace=wrap;html=1;" parent="1" vertex="1">
          <mxGeometry x="120" y="720" width="120" height="20" as="geometry" />
        </mxCell>
        <mxCell id="rvGTaUA01hD-SUWbWmu1-54" value="吸引程度" style="rounded=0;whiteSpace=wrap;html=1;" parent="1" vertex="1">
          <mxGeometry x="120" y="760" width="120" height="20" as="geometry" />
        </mxCell>
        <mxCell id="rvGTaUA01hD-SUWbWmu1-55" value="专业称度" style="rounded=0;whiteSpace=wrap;html=1;" parent="1" vertex="1">
          <mxGeometry x="120" y="740" width="120" height="20" as="geometry" />
        </mxCell>
        <mxCell id="rvGTaUA01hD-SUWbWmu1-56" value="主动帮助" style="rounded=0;whiteSpace=wrap;html=1;" parent="1" vertex="1">
          <mxGeometry x="633" y="710" width="120" height="30" as="geometry" />
        </mxCell>
        <mxCell id="rvGTaUA01hD-SUWbWmu1-58" value="愿意帮助" style="rounded=0;whiteSpace=wrap;html=1;" parent="1" vertex="1">
          <mxGeometry x="633" y="740" width="120" height="30" as="geometry" />
        </mxCell>
        <mxCell id="rvGTaUA01hD-SUWbWmu1-60" value="点赞评论" style="rounded=0;whiteSpace=wrap;html=1;" parent="1" vertex="1">
          <mxGeometry x="633" y="540" width="120" height="20" as="geometry" />
        </mxCell>
        <mxCell id="rvGTaUA01hD-SUWbWmu1-61" value="下单购买" style="rounded=0;whiteSpace=wrap;html=1;" parent="1" vertex="1">
          <mxGeometry x="633" y="580" width="120" height="20" as="geometry" />
        </mxCell>
        <mxCell id="rvGTaUA01hD-SUWbWmu1-62" value="直播打赏" style="rounded=0;whiteSpace=wrap;html=1;" parent="1" vertex="1">
          <mxGeometry x="633" y="560" width="120" height="20" as="geometry" />
        </mxCell>
        <mxCell id="rvGTaUA01hD-SUWbWmu1-63" value="弹幕评论" style="rounded=0;whiteSpace=wrap;html=1;" parent="1" vertex="1">
          <mxGeometry x="120" y="580" width="120" height="20" as="geometry" />
        </mxCell>
        <mxCell id="-cZGvEiwD8rviWpvyMt--2" value="被动响应" style="rounded=0;whiteSpace=wrap;html=1;strokeColor=none;" vertex="1" parent="1">
          <mxGeometry x="113" y="958" width="136" height="22" as="geometry" />
        </mxCell>
        <mxCell id="-cZGvEiwD8rviWpvyMt--3" value="主动响应" style="rounded=0;whiteSpace=wrap;html=1;strokeColor=none;" vertex="1" parent="1">
          <mxGeometry x="271" y="958" width="136" height="22" as="geometry" />
        </mxCell>
        <mxCell id="-cZGvEiwD8rviWpvyMt--4" value="主动响应" style="rounded=0;whiteSpace=wrap;html=1;strokeColor=none;" vertex="1" parent="1">
          <mxGeometry x="463" y="861" width="102" height="22" as="geometry" />
        </mxCell>
        <mxCell id="-cZGvEiwD8rviWpvyMt--5" value="被动响应" style="rounded=0;whiteSpace=wrap;html=1;strokeColor=none;" vertex="1" parent="1">
          <mxGeometry x="461" y="836" width="104" height="22" as="geometry" />
        </mxCell>
        <mxCell id="-cZGvEiwD8rviWpvyMt--6" value="商家绩效" style="rounded=0;whiteSpace=wrap;html=1;strokeColor=none;" vertex="1" parent="1">
          <mxGeometry x="83" y="831" width="18" height="104" as="geometry" />
        </mxCell>
        <mxCell id="-cZGvEiwD8rviWpvyMt--9" value="" style="endArrow=none;dashed=1;html=1;" edge="1" parent="1">
          <mxGeometry width="50" height="50" relative="1" as="geometry">
            <mxPoint x="422" y="847" as="sourcePoint" />
            <mxPoint x="459" y="847" as="targetPoint" />
          </mxGeometry>
        </mxCell>
        <mxCell id="-cZGvEiwD8rviWpvyMt--12" value="" style="endArrow=none;dashed=1;html=1;" edge="1" parent="1">
          <mxGeometry width="50" height="50" relative="1" as="geometry">
            <mxPoint x="184" y="860" as="sourcePoint" />
            <mxPoint x="338" y="860" as="targetPoint" />
          </mxGeometry>
        </mxCell>
        <mxCell id="-cZGvEiwD8rviWpvyMt--13" value="" style="endArrow=none;html=1;" edge="1" parent="1">
          <mxGeometry width="50" height="50" relative="1" as="geometry">
            <mxPoint x="186" y="875" as="sourcePoint" />
            <mxPoint x="334" y="834" as="targetPoint" />
          </mxGeometry>
        </mxCell>
        <mxCell id="-cZGvEiwD8rviWpvyMt--15" value="" style="endArrow=none;html=1;" edge="1" parent="1">
          <mxGeometry width="50" height="50" relative="1" as="geometry">
            <mxPoint x="423" y="875" as="sourcePoint" />
            <mxPoint x="460" y="875" as="targetPoint" />
          </mxGeometry>
        </mxCell>
      </root>
    </mxGraphModel>
  </diagram>
</mxfile>
